<svg width="20.000000" height="20.000000" viewBox="0 0 20 20" fill="none" xmlns="http://www.w3.org/2000/svg" xmlns:xlink="http://www.w3.org/1999/xlink">
	<desc>
			Created with Pixso.
	</desc>
	<defs/>
	<path id="椭圆 40" d="M11.5 14.5C11.5 13.1193 12.1194 12 13.5 12C14.8806 12 16 13.1193 16 14.5C16 15.8807 15.3806 17 14 17C12.6194 17 11.5 15.8807 11.5 14.5Z" fill-rule="evenodd" fill="#20A53A"/>
	<path id="矢量 623" d="M4.59082 18L10.0701 18C10.2483 18 10.3882 17.8591 10.3882 17.6801C10.3882 17.5009 10.248 17.36 10.0698 17.36L4.59082 17.36C4.45898 17.36 4.33716 17.3365 4.22461 17.2897C4.11206 17.2428 4.00928 17.1725 3.91602 17.0787C3.82275 16.9851 3.75293 16.8816 3.7063 16.7686C3.65967 16.6554 3.63647 16.5326 3.63647 16.3999L3.63647 3.6001C3.63647 3.27991 3.71582 3.04004 3.875 2.88C4.03394 2.72009 4.27271 2.64001 4.59106 2.64001L15.4092 2.64001C15.7273 2.64001 15.9661 2.72009 16.125 2.88C16.2842 3.04004 16.3638 3.27991 16.3638 3.6001L16.3638 9.7511C16.3638 9.9303 16.5037 10.071 16.6819 10.071C16.8601 10.071 17 9.9303 17 9.7511L17 3.6001C17 3.37915 16.9612 3.17432 16.8835 2.98584C16.8059 2.79724 16.6895 2.62488 16.5342 2.46863C16.3787 2.31238 16.2075 2.19531 16.02 2.11719C15.8323 2.03906 15.6289 2 15.4092 2L4.59106 2C4.06055 2 3.66284 2.1333 3.39771 2.3999C3.13257 2.66663 3 3.06665 3 3.6001L3 16.3999C3 16.9333 3.13257 17.3334 3.39771 17.6001C3.66284 17.8667 4.06055 18 4.59082 18Z" fill-rule="evenodd" fill="#20A53A"/>
	<path id="矢量 623" d="M16.3638 9.14844L16.3638 3.6001C16.3638 3.27991 16.2842 3.04004 16.125 2.88C15.9661 2.72009 15.7273 2.64001 15.4092 2.64001L4.59106 2.64001C4.27271 2.64001 4.03394 2.72009 3.875 2.88C3.71582 3.04004 3.63647 3.27991 3.63647 3.6001L3.63647 16.3999C3.63647 16.5326 3.65967 16.6554 3.7063 16.7686C3.75293 16.8816 3.82275 16.9851 3.91602 17.0787C4.00928 17.1725 4.11206 17.2428 4.22461 17.2897C4.33716 17.3365 4.45898 17.36 4.59082 17.36L10.0698 17.36C10.248 17.36 10.3882 17.5009 10.3882 17.6801C10.3882 17.8591 10.2483 18 10.0701 18L4.59082 18C4.06055 18 3.66284 17.8667 3.39771 17.6001C3.13257 17.3334 3 16.9333 3 16.3999L3 3.6001C3 3.06665 3.13257 2.66663 3.39771 2.3999C3.66284 2.1333 4.06055 2 4.59106 2L15.4092 2C15.6289 2 15.8323 2.03906 16.02 2.11719C16.2075 2.19531 16.3787 2.31238 16.5342 2.46863C16.6895 2.62488 16.8059 2.79724 16.8835 2.98584C16.9612 3.17432 17 3.37915 17 3.6001L17 9.7511C17 9.9303 16.8601 10.071 16.6819 10.071C16.5037 10.071 16.3638 9.9303 16.3638 9.7511L16.3638 9.14844Z" fill-rule="evenodd" fill="#20A53A"/>
	<path id="合并" d="M13.9951 14.4189L15.1243 15.2037C15.2158 15.2955 15.2617 15.4333 15.1702 15.5253C15.1702 15.5712 15.1243 15.5712 15.0327 15.5712C14.9871 15.5712 14.9414 15.5712 14.8955 15.5253L13.7056 14.7444C13.6135 14.6827 13.5833 14.6005 13.5869 14.5253L13.5867 12.8971C13.5867 12.7588 13.6685 12.6666 13.7908 12.6666C13.9133 12.6666 13.9951 12.7588 13.9951 12.8971L13.9951 14.4189Z" fill-rule="evenodd" fill="#666666"/>
	<path id="合并" d="M11.8027 16.2601C11.7668 16.224 11.741 16.1842 11.7251 16.1406C11.7126 16.1064 11.7065 16.0701 11.7065 16.0312C11.7065 15.9926 11.7126 15.9562 11.7251 15.922C11.7412 15.8776 11.7678 15.837 11.8047 15.8004C11.8408 15.7646 11.8804 15.7388 11.9236 15.7229C11.9585 15.7101 11.9956 15.7036 12.0352 15.7036C12.0747 15.7036 12.1118 15.7101 12.1465 15.7229C12.1897 15.7388 12.2295 15.7646 12.2654 15.8004Q12.519 16.0519 12.8218 16.2045C12.8635 16.2253 12.9058 16.2449 12.9487 16.2631C13.0615 16.3107 13.1765 16.3477 13.2942 16.374C13.439 16.4065 13.5876 16.4226 13.7397 16.4226Q13.9641 16.4226 14.179 16.3772Q14.1809 16.3767 14.1829 16.3763C14.3079 16.3496 14.4304 16.3113 14.5505 16.2615C14.6807 16.2075 14.8032 16.1418 14.9182 16.0648C15.0251 15.9929 15.1257 15.9111 15.2195 15.8192C15.3323 15.7087 15.4302 15.5887 15.5137 15.4591Q15.6052 15.3165 15.6733 15.1586C15.7197 15.0509 15.7563 14.941 15.7834 14.8287Q15.8406 14.5916 15.8406 14.3406Q15.8406 14.0504 15.7673 13.7803C15.7434 13.6924 15.7139 13.6062 15.6782 13.5215C15.6265 13.3975 15.5637 13.2808 15.4902 13.1714C15.4158 13.0605 15.3301 12.9573 15.2336 12.8615C15.1494 12.778 15.0593 12.7028 14.9639 12.6359Q14.96 12.6333 14.9563 12.6307Q14.7754 12.5056 14.5674 12.4198C14.4907 12.3883 14.4128 12.3613 14.3337 12.3391C14.1433 12.2854 13.9453 12.2585 13.7397 12.2585C13.6597 12.2585 13.5803 12.2632 13.5015 12.2723Q13.2832 12.2976 13.0706 12.3694Q12.9297 12.417 12.7979 12.4827L12.7979 12.4827Q12.7942 12.4845 12.7905 12.4863Q12.6262 12.569 12.4761 12.6797Q12.2925 12.8151 12.1443 12.9819Q12.1411 12.9857 12.1377 12.9895C12.0916 13.042 12.0479 13.0969 12.0068 13.1542Q11.8708 13.3441 11.7832 13.5544Q11.782 13.5575 11.7808 13.5607C11.7563 13.6194 11.7351 13.6793 11.7166 13.7405C11.7141 13.782 11.7043 13.8199 11.6873 13.8542C11.667 13.8954 11.636 13.9313 11.595 13.9619C11.5833 13.9655 11.4858 14.0123 11.4739 14.0143C11.4421 14.0195 11.4121 14.0189 11.3831 14.0126C11.3455 13.9993 11.2681 13.9664 11.2385 13.9429C11.2036 13.915 11.1741 13.8799 11.1504 13.8375Q11.1245 13.7911 11.1116 13.7415L11.1113 13.7405Q11.0991 13.6924 11.0991 13.641C11.1233 13.557 11.157 13.4375 11.1892 13.3568Q11.1909 13.3529 11.1926 13.3489L11.1926 13.3489Q11.3069 13.0673 11.4883 12.8127Q11.5676 12.7012 11.6575 12.5986Q11.6619 12.5938 11.666 12.5887Q11.8589 12.3702 12.0984 12.1929Q12.2991 12.0441 12.519 11.9341Q12.5239 11.9318 12.5288 11.9293L12.5288 11.9293Q12.6938 11.8475 12.8699 11.7876Q13.1609 11.6885 13.4592 11.6569L13.4619 11.6566L13.4619 11.6566Q13.6001 11.6421 13.7397 11.6421C13.9504 11.6421 14.156 11.6649 14.3564 11.7104C14.5117 11.7456 14.6638 11.7946 14.8127 11.8571Q15.0542 11.9584 15.2688 12.1005L15.2688 12.1005Q15.2739 12.1039 15.2791 12.1072C15.4253 12.205 15.562 12.317 15.6895 12.4432C15.8315 12.5844 15.9558 12.7371 16.0623 12.9015C16.1462 13.0315 16.219 13.1688 16.2808 13.3134C16.3477 13.4703 16.3992 13.6306 16.4351 13.7944Q16.4978 14.08 16.4978 14.3795Q16.4978 14.6344 16.45 14.8799C16.4141 15.0652 16.3574 15.2466 16.2805 15.4238C16.2256 15.5502 16.1619 15.6709 16.0896 15.7861C15.9771 15.9648 15.8435 16.1302 15.689 16.2821C15.5632 16.4054 15.4287 16.515 15.2852 16.6108C15.1372 16.7097 14.9797 16.7939 14.8125 16.8638C14.6582 16.9282 14.5007 16.978 14.3401 17.0134Q14.3374 17.014 14.3347 17.0146Q14.0442 17.078 13.7397 17.078Q13.3496 17.078 12.988 16.9762Q12.9849 16.9752 12.9817 16.9744Q12.8281 16.9307 12.6797 16.8685Q12.3774 16.7422 12.1245 16.5508Q12.1199 16.5474 12.1152 16.5438C12.0039 16.4587 11.8997 16.3643 11.8027 16.2601ZM13.9951 12.8945L14.0117 14.428L15.1245 15.2012C15.2161 15.2931 15.2617 15.4309 15.1702 15.5227C15.1702 15.5687 15.1245 15.5687 15.033 15.5687C14.9871 15.5687 14.9414 15.5687 14.8955 15.5227L13.7056 14.7418C13.6135 14.6802 13.583 14.5829 13.5867 14.5077L13.5867 12.8945C13.5867 12.7562 13.6685 12.6641 13.791 12.6641C13.9133 12.6641 13.9951 12.7562 13.9951 12.8945Z" clip-rule="evenodd" fill-rule="evenodd" fill="#FFFFFF" fill-opacity="1.000000"/>
	<path id="合并" d="M11.8027 16.2571C11.7668 16.2209 11.741 16.1812 11.7253 16.1376C11.7129 16.1034 11.7065 16.067 11.7065 16.0282C11.7065 15.9895 11.7129 15.9531 11.7253 15.9189C11.7415 15.8745 11.7678 15.834 11.8049 15.7974C11.8408 15.7616 11.8806 15.7357 11.9238 15.7198C11.9587 15.707 11.9958 15.7006 12.0352 15.7006C12.0745 15.7006 12.1113 15.7069 12.1458 15.7195L12.1467 15.7198C12.1899 15.7357 12.2295 15.7616 12.2656 15.7974C12.4346 15.965 12.6201 16.0996 12.822 16.2014C12.8635 16.2223 12.9058 16.2418 12.9487 16.26C13.0615 16.3076 13.1768 16.3446 13.2942 16.371C13.4392 16.4034 13.5876 16.4196 13.7397 16.4196C13.8909 16.4196 14.0386 16.4042 14.1831 16.3733C14.3081 16.3466 14.4307 16.3082 14.5508 16.2584C14.6809 16.2045 14.8035 16.1388 14.9182 16.0618C15.0254 15.9899 15.1257 15.9081 15.2195 15.8162C15.3323 15.7057 15.4304 15.5857 15.5137 15.4561C15.575 15.361 15.6282 15.2609 15.6736 15.1555C15.7197 15.0479 15.7566 14.938 15.7834 14.8257C15.8218 14.6676 15.8408 14.5049 15.8408 14.3375C15.8408 14.144 15.8164 13.9573 15.7673 13.7772C15.7437 13.6893 15.7139 13.6031 15.6785 13.5184C15.6265 13.3944 15.5637 13.2777 15.4902 13.1683C15.4158 13.0575 15.3303 12.9542 15.2336 12.8584C15.1494 12.7749 15.0596 12.6997 14.9639 12.6328C14.8413 12.5471 14.709 12.4751 14.5674 12.4167C14.491 12.3853 14.4131 12.3583 14.334 12.3361C14.3323 12.3356 14.3306 12.3351 14.3289 12.3346C14.1399 12.2819 13.9436 12.2555 13.7397 12.2555C13.6599 12.2555 13.5803 12.2601 13.5015 12.2693C13.3562 12.2861 13.2124 12.3185 13.0706 12.3663C12.9768 12.3981 12.886 12.4358 12.7981 12.4796L12.7981 12.4796C12.7957 12.4808 12.793 12.4821 12.7905 12.4833C12.6812 12.5383 12.5764 12.6028 12.4763 12.6766C12.3538 12.7668 12.2434 12.8676 12.1445 12.9788L12.1445 12.9789C12.1423 12.9813 12.1401 12.9839 12.1379 12.9865C12.0916 13.0389 12.0481 13.0939 12.0071 13.1511C11.9163 13.2777 11.8418 13.4111 11.7834 13.5514C11.7825 13.5533 11.7817 13.5554 11.7808 13.5576C11.76 13.6083 11.7412 13.6599 11.7244 13.7124L12.3032 13.422C12.3787 13.3855 12.4919 13.422 12.5676 13.4949C12.6052 13.5677 12.5676 13.6771 12.4919 13.75L11.51 14.2239C11.5042 14.2239 11.4912 14.2242 11.4744 14.2246L11.4744 14.2246C11.4202 14.2262 11.3262 14.2288 11.3086 14.2239C11.1929 14.2239 11.1155 14.1785 11.1155 14.0425L10.9612 12.8635C10.9612 12.7275 10.9998 12.6368 11.1155 12.5914C11.2314 12.5914 11.3086 12.6368 11.3472 12.7728L11.3738 12.9843C11.4094 12.925 11.4478 12.8668 11.4883 12.8097C11.5413 12.7354 11.5977 12.6639 11.6575 12.5956C11.7883 12.446 11.9353 12.3108 12.0986 12.1898C12.2324 12.0906 12.3726 12.0044 12.5193 11.931C12.5225 11.9294 12.5256 11.9279 12.5288 11.9263C12.6389 11.8717 12.7527 11.8245 12.8701 11.7845C13.0642 11.7185 13.2605 11.6749 13.4592 11.6538C13.5522 11.6439 13.6458 11.639 13.7397 11.639C13.9504 11.639 14.1562 11.6619 14.3567 11.7074C14.5117 11.7426 14.6638 11.7915 14.8127 11.854C14.9739 11.9215 15.126 12.0027 15.269 12.0974C15.2725 12.0996 15.2759 12.1019 15.2791 12.1041C15.4253 12.2019 15.5623 12.314 15.6895 12.4402C15.8289 12.5784 15.9509 12.7279 16.0559 12.8885C16.0581 12.8918 16.0601 12.8951 16.0623 12.8984C16.1465 13.0284 16.2192 13.1658 16.281 13.3103C16.3479 13.4673 16.3992 13.6276 16.4353 13.7914C16.4771 13.9818 16.498 14.1768 16.498 14.3765C16.498 14.5464 16.4819 14.7131 16.4502 14.8768C16.4141 15.0621 16.3577 15.2435 16.2805 15.4208C16.2258 15.5471 16.1621 15.6678 16.0896 15.7831C15.9773 15.9618 15.8438 16.1272 15.689 16.2791C15.5635 16.4023 15.429 16.512 15.2852 16.6078C15.1372 16.7067 14.9797 16.7909 14.8127 16.8607C14.6584 16.9252 14.501 16.975 14.3403 17.0104C14.1448 17.0535 13.9446 17.075 13.7397 17.075C13.4797 17.075 13.2292 17.041 12.9883 16.9731C12.9861 16.9725 12.9839 16.9719 12.9817 16.9713C12.8794 16.9421 12.7788 16.9069 12.6797 16.8655C12.4746 16.7797 12.2866 16.6714 12.1155 16.5408C12.0042 16.4557 11.8999 16.3612 11.8027 16.2571Z" clip-rule="evenodd" fill-rule="evenodd" fill="#20A53A" fill-opacity="1.000000"/>
	<rect id="矩形 965" x="4.995117" y="9.111084" width="6.382098" height="0.948148" fill="#20A53A"/>
	<rect id="矩形 967" x="4.769287" y="5.555542" width="8.845970" height="0.888889" fill="#20A53A"/>
	<path id="矩形 966" d="M4.99463 12.6666L8.58447 12.6666L8.58447 13.6147L4.99463 13.6147L4.99463 12.6666Z" fill-rule="evenodd" fill="#20A53A"/>
</svg>
