<svg width="20.000000" height="20.000000" viewBox="0 0 20 20" fill="none" xmlns="http://www.w3.org/2000/svg" xmlns:xlink="http://www.w3.org/1999/xlink">
	<desc>
			Created with Pixso.
	</desc>
	<defs/>
	<path id="矢量 623" d="M4.59082 18L10.0701 18C10.2483 18 10.3882 17.8591 10.3882 17.6801C10.3882 17.5009 10.248 17.36 10.0698 17.36L4.59082 17.36C4.45898 17.36 4.33716 17.3365 4.22461 17.2897C4.11206 17.2428 4.00928 17.1725 3.91602 17.0787C3.82275 16.9851 3.75293 16.8816 3.7063 16.7686C3.65967 16.6554 3.63647 16.5326 3.63647 16.3999L3.63647 3.6001C3.63647 3.27991 3.71582 3.04004 3.875 2.88C4.03394 2.72009 4.27271 2.64001 4.59106 2.64001L15.4092 2.64001C15.7273 2.64001 15.9661 2.72009 16.125 2.88C16.2842 3.04004 16.3638 3.27991 16.3638 3.6001L16.3638 9.7511C16.3638 9.9303 16.5037 10.071 16.6819 10.071C16.8601 10.071 17 9.9303 17 9.7511L17 3.6001C17 3.37915 16.9612 3.17432 16.8835 2.98584C16.8059 2.79724 16.6895 2.62488 16.5342 2.46863C16.3787 2.31238 16.2075 2.19531 16.02 2.11719C15.8323 2.03906 15.6289 2 15.4092 2L4.59106 2C4.06055 2 3.66284 2.1333 3.39771 2.3999C3.13257 2.66663 3 3.06665 3 3.6001L3 16.3999C3 16.9333 3.13257 17.3334 3.39771 17.6001C3.66284 17.8667 4.06055 18 4.59082 18Z" fill-rule="evenodd" fill="#666666"/>
	<path id="矢量 623" d="M16.3638 9.14844L16.3638 3.6001C16.3638 3.27991 16.2842 3.04004 16.125 2.88C15.9661 2.72009 15.7273 2.64001 15.4092 2.64001L4.59106 2.64001C4.27271 2.64001 4.03394 2.72009 3.875 2.88C3.71582 3.04004 3.63647 3.27991 3.63647 3.6001L3.63647 16.3999C3.63647 16.5326 3.65967 16.6554 3.7063 16.7686C3.75293 16.8816 3.82275 16.9851 3.91602 17.0787C4.00928 17.1725 4.11206 17.2428 4.22461 17.2897C4.33716 17.3365 4.45898 17.36 4.59082 17.36L10.0698 17.36C10.248 17.36 10.3882 17.5009 10.3882 17.6801C10.3882 17.8591 10.2483 18 10.0701 18L4.59082 18C4.06055 18 3.66284 17.8667 3.39771 17.6001C3.13257 17.3334 3 16.9333 3 16.3999L3 3.6001C3 3.06665 3.13257 2.66663 3.39771 2.3999C3.66284 2.1333 4.06055 2 4.59106 2L15.4092 2C15.6289 2 15.8323 2.03906 16.02 2.11719C16.2075 2.19531 16.3787 2.31238 16.5342 2.46863C16.6895 2.62488 16.8059 2.79724 16.8835 2.98584C16.9612 3.17432 17 3.37915 17 3.6001L17 9.7511C17 9.9303 16.8601 10.071 16.6819 10.071C16.5037 10.071 16.3638 9.9303 16.3638 9.7511L16.3638 9.14844Z" fill-rule="evenodd" fill="#666666"/>
	<path id="合并" d="M13.9949 14.4189L15.124 15.2037C15.2156 15.2955 15.2615 15.4333 15.1699 15.5253C15.1699 15.5712 15.124 15.5712 15.0325 15.5712C14.9868 15.5712 14.9412 15.5712 14.8953 15.5253L13.7053 14.7444C13.6133 14.6827 13.583 14.6005 13.5867 14.5253L13.5864 12.8971C13.5864 12.7588 13.6682 12.6666 13.7905 12.6666C13.9131 12.6666 13.9949 12.7588 13.9949 12.8971L13.9949 14.4189Z" fill-rule="evenodd" fill="#666666"/>
	<path id="合并" d="M11.8025 16.2627C11.7666 16.2266 11.7407 16.1868 11.7249 16.1432C11.7126 16.109 11.7063 16.0726 11.7063 16.0338C11.7063 15.9951 11.7126 15.9587 11.7249 15.9246C11.741 15.8801 11.7676 15.8396 11.8047 15.803C11.8406 15.7672 11.8804 15.7413 11.9236 15.7255C11.9583 15.7126 11.9954 15.7062 12.0349 15.7062C12.0745 15.7062 12.1116 15.7126 12.1465 15.7255C12.1897 15.7413 12.2292 15.7672 12.2654 15.803C12.4343 15.9706 12.6199 16.1052 12.8218 16.207C12.8633 16.2279 12.9055 16.2474 12.9485 16.2656C13.0613 16.3132 13.1765 16.3502 13.2939 16.3766C13.439 16.4091 13.5874 16.4252 13.7395 16.4252C13.8892 16.4252 14.0356 16.41 14.1787 16.3798C14.1802 16.3795 14.1814 16.3792 14.1829 16.3789C14.3079 16.3522 14.4302 16.3138 14.5503 16.264C14.6807 16.2101 14.8032 16.1444 14.918 16.0674C15.0251 15.9955 15.1255 15.9137 15.2192 15.8218C15.332 15.7113 15.4302 15.5913 15.5134 15.4617C15.5747 15.3666 15.6279 15.2665 15.6731 15.1611C15.7195 15.0535 15.7561 14.9436 15.7832 14.8313C15.8213 14.6732 15.8406 14.5105 15.8403 14.3431C15.8403 14.1497 15.8159 13.9629 15.7671 13.7828C15.7434 13.6949 15.7136 13.6088 15.6782 13.524C15.6262 13.4 15.5635 13.2833 15.49 13.174C15.4155 13.0631 15.3301 12.9598 15.2334 12.864C15.1492 12.7805 15.0593 12.7053 14.9636 12.6384C14.9612 12.6367 14.9585 12.635 14.9561 12.6333L14.9561 12.6332C14.8354 12.5498 14.7058 12.4796 14.5671 12.4224C14.4907 12.3909 14.4128 12.3639 14.3337 12.3417C14.1431 12.288 13.9451 12.2611 13.7395 12.2611C13.6597 12.2611 13.5801 12.2657 13.5012 12.2749C13.3557 12.2917 13.2122 12.3241 13.0703 12.3719C12.9766 12.4037 12.8855 12.4414 12.7979 12.4852L12.7979 12.4852C12.7952 12.4865 12.7927 12.4877 12.7903 12.4889C12.6809 12.5439 12.5759 12.6084 12.4758 12.6823C12.3535 12.7725 12.2429 12.8732 12.1443 12.9845C12.1421 12.9869 12.1399 12.9895 12.1375 12.9921C12.0913 13.0446 12.0476 13.0995 12.0068 13.1567C11.916 13.2833 11.8413 13.4167 11.7832 13.557C11.7822 13.5591 11.7812 13.5612 11.7805 13.5632C11.76 13.6128 11.7417 13.6633 11.7251 13.7147L12.3032 13.4247C12.3237 13.4147 12.3474 13.4102 12.3721 13.4104C12.4377 13.4109 12.5127 13.4446 12.5676 13.4976C12.5681 13.4985 12.5686 13.4995 12.5691 13.5006C12.6042 13.5735 12.5667 13.6807 12.4922 13.7526L12.4919 13.7527L12.1797 13.9034L12.179 13.9037L11.51 14.2266C11.5042 14.2266 11.4912 14.2269 11.4744 14.2274C11.4404 14.2283 11.3904 14.2296 11.3538 14.2294C11.3354 14.2296 11.3191 14.229 11.3098 14.2268L11.3086 14.2266C11.1929 14.2266 11.1155 14.1812 11.1155 14.0452L10.9612 12.8662C10.9612 12.7302 10.9998 12.6395 11.1155 12.5941L11.1157 12.5941C11.2314 12.5941 11.3086 12.6395 11.3472 12.7755L11.374 12.9889C11.4097 12.9299 11.4475 12.8722 11.488 12.8153C11.541 12.741 11.5974 12.6696 11.6572 12.6012C11.6602 12.5979 11.6631 12.5946 11.666 12.5913C11.7944 12.4457 11.9387 12.3137 12.0981 12.1954C12.2322 12.0962 12.3723 12.01 12.519 11.9366C12.5222 11.9351 12.5254 11.9335 12.5286 11.9319L12.5286 11.9319C12.6387 11.8773 12.7524 11.8301 12.8699 11.7902C13.0637 11.7241 13.2603 11.6805 13.459 11.6594L13.4617 11.6592L13.4617 11.6592C13.5537 11.6495 13.6465 11.6447 13.7395 11.6447C13.9502 11.6447 14.1558 11.6675 14.3564 11.713C14.5115 11.7482 14.6636 11.7971 14.8125 11.8596C14.9736 11.9271 15.1257 12.0083 15.2688 12.103L15.2688 12.103C15.2722 12.1052 15.2754 12.1075 15.2788 12.1097C15.425 12.2075 15.5618 12.3196 15.6892 12.4458C15.8313 12.5869 15.9556 12.7396 16.062 12.9041C16.146 13.0341 16.219 13.1714 16.2805 13.3159C16.3477 13.4729 16.3989 13.6332 16.4351 13.797C16.4768 13.9874 16.4978 14.1824 16.4978 14.3821C16.4978 14.552 16.4817 14.7188 16.45 14.8824C16.4138 15.0677 16.3572 15.2491 16.2803 15.4264C16.2253 15.5527 16.1619 15.6735 16.0894 15.7887C15.9771 15.9674 15.8435 16.1328 15.6887 16.2847C15.5632 16.408 15.4285 16.5176 15.2849 16.6134C15.137 16.7123 14.9795 16.7965 14.8123 16.8663C14.658 16.9308 14.5005 16.9806 14.3398 17.016C14.3381 17.0164 14.3364 17.0168 14.3345 17.0172L14.3345 17.0172C14.1406 17.0594 13.9424 17.0806 13.7395 17.0806C13.4795 17.0806 13.229 17.0466 12.988 16.9788L12.988 16.9788C12.9858 16.9781 12.9836 16.9775 12.9814 16.9769C12.8792 16.9478 12.7783 16.9125 12.6794 16.8711C12.478 16.7869 12.293 16.6809 12.1243 16.5533C12.1213 16.551 12.1182 16.5487 12.1152 16.5464C12.0037 16.4613 11.8997 16.3668 11.8025 16.2627ZM13.9949 12.8971L14.0115 14.4305L15.1243 15.2037C15.2158 15.2957 15.2615 15.4335 15.1699 15.5253C15.1699 15.5713 15.1243 15.5713 15.0327 15.5713C14.9868 15.5713 14.9412 15.5713 14.8955 15.5253L13.7056 14.7444C13.6135 14.6827 13.5828 14.5854 13.5864 14.5103L13.5864 12.8971C13.5864 12.7588 13.6682 12.6666 13.7908 12.6666C13.9131 12.6666 13.9949 12.7588 13.9949 12.8971Z" clip-rule="evenodd" fill-rule="evenodd" fill="#666666" fill-opacity="1.000000"/>
	<rect id="矩形 965" x="4.994873" y="9.111084" width="6.382098" height="0.948148" fill="#666666"/>
	<rect id="矩形 967" x="4.769287" y="5.555542" width="8.845970" height="0.888889" fill="#666666"/>
	<path id="矩形 966" d="M4.99463 12.6666L8.58447 12.6666L8.58447 13.6147L4.99463 13.6147L4.99463 12.6666Z" fill-rule="evenodd" fill="#666666"/>
</svg>
