<svg width="20.000000" height="125.000000" viewBox="0 0 20 125" fill="none" xmlns="http://www.w3.org/2000/svg" xmlns:xlink="http://www.w3.org/1999/xlink">
	<desc>
			Created with Pixso.
	</desc>
	<path id="path" d="M17.6724 9.88379L10.8491 2.66113L10.3911 2.17139C10.2852 2.06104 10.144 2 10.0034 2C9.85059 2 9.70996 2.06104 9.61572 2.17139L2.33398 9.87158C2.00537 10.2144 1.91138 10.7285 2.0874 11.1812C2.26367 11.6221 2.68652 11.916 3.14453 11.916L3.896 11.916L3.896 18L16.1221 18L16.1221 11.9282L16.8857 11.9282C17.1909 11.9282 17.4731 11.8057 17.6846 11.5854C18.1069 11.1079 18.1069 10.3613 17.6724 9.88379ZM10.978 16.6655L9.00488 16.6655L9.00488 12.8584L10.9897 12.8584L10.978 16.6655ZM14.8306 10.5815L14.8306 16.6655L12.1172 16.6655L12.1172 12.4053C12.1172 12.2095 12.0469 12.0137 11.9175 11.8789C11.7886 11.7446 11.6006 11.6587 11.4126 11.6587L8.58203 11.6587C8.39453 11.6587 8.21826 11.7446 8.07715 11.8789C7.94824 12.0137 7.86572 12.2095 7.87744 12.4053L7.87744 16.6655L5.15283 16.6655L5.15283 10.5815L3.44971 10.5815L9.9917 3.67725L10.4028 4.11768L16.5332 10.5938L14.8306 10.5815Z" fill-rule="evenodd" fill="#666666"/>
	<path id="path" d="M16.3359 33.7832L13.3037 36.7778L13.0796 36.7778L12.8921 36.6226L11.376 35.1255L11.9443 34.5645L13.1772 35.7803L15.7671 33.2222L16.3359 33.7832Z" fill-rule="evenodd" fill="#666666"/>
	<path id="减去顶层" d="M16.4307 27.001C16.4307 24.792 14.6401 23.001 12.4307 23.001L6.00146 23.001C3.79248 23.001 2.00146 24.792 2.00146 27.001L2.00146 35.001C2.00146 37.21 3.79248 39.001 6.00146 39.001L7.91846 39.001L7.91846 37.8008L6.00146 37.8008C4.45508 37.8008 3.20166 36.5474 3.20166 35.001L3.20166 27.001C3.20166 25.4546 4.45508 24.2012 6.00146 24.2012L12.4307 24.2012C13.9771 24.2012 15.231 25.4546 15.231 27.001L15.231 28.7153L16.4307 28.7153L16.4307 27.001Z" clip-rule="evenodd" fill-rule="evenodd" fill="#666666" fill-opacity="1.000000"/>
	<rect id="矩形 83" x="4.254883" y="27.000000" width="7.214696" height="1.066666" fill="#666666"/>
	<path id="矩形 84" d="M4.25488 31L8.31299 31L8.31299 32.0664L4.25488 32.0669L4.25488 31Z" fill-rule="evenodd" fill="#666666"/>
	<ellipse id="椭圆 3" cx="13.833008" cy="34.841797" rx="3.667048" ry="3.564171" stroke="#666666"/>
	<path id="path" d="M16.2412 44L3.75488 44C3.63965 44 3.52539 44.0117 3.4126 44.0347C3.29932 44.0576 3.18994 44.0923 3.0835 44.1377C2.97705 44.1826 2.87598 44.2383 2.77979 44.3042C2.68408 44.3701 2.5957 44.4448 2.51416 44.5288C2.43262 44.6128 2.35986 44.7041 2.2959 44.8027C2.23193 44.9014 2.17773 45.0054 2.13379 45.1147C2.08936 45.2241 2.05615 45.3374 2.03369 45.4536C2.01123 45.5698 2 45.687 2 45.8057L2 55.022C2 55.1406 2.01123 55.2583 2.03369 55.375C2.05615 55.4917 2.08984 55.6045 2.13379 55.7144C2.17822 55.8242 2.23242 55.9287 2.29639 56.0273C2.36035 56.126 2.43359 56.2178 2.51514 56.3018C2.59668 56.3857 2.68555 56.4604 2.78174 56.5269C2.87793 56.5928 2.979 56.6484 3.08594 56.6938C3.19238 56.7393 3.30225 56.7739 3.41553 56.7969C3.52881 56.8203 3.64355 56.8315 3.75879 56.8315L9.40723 56.8315L9.40723 58.7798L5.18994 58.7798C5.11133 58.7798 5.03564 58.7954 4.96289 58.8262C4.89014 58.8574 4.82617 58.9014 4.77051 58.9585C4.71484 59.0156 4.67188 59.0815 4.64209 59.1562C4.61182 59.2314 4.59668 59.3091 4.59668 59.3901C4.59668 59.4707 4.61182 59.5488 4.64209 59.6235C4.67188 59.6982 4.71484 59.7642 4.77051 59.8213C4.82617 59.8784 4.89014 59.9224 4.96289 59.9536C5.03564 59.9844 5.11133 60 5.18994 60L11.1187 60C11.1973 60 11.2729 59.9844 11.3457 59.9536C11.418 59.9224 11.4824 59.8784 11.5376 59.8213C11.5933 59.7642 11.6362 59.6982 11.6665 59.6235C11.6963 59.5488 11.7114 59.4707 11.7114 59.3901C11.7114 59.3091 11.6963 59.2314 11.6665 59.1562C11.6362 59.0815 11.5933 59.0156 11.5376 58.9585C11.4824 58.9014 11.418 58.8574 11.3457 58.8262C11.2729 58.7954 11.1973 58.7798 11.1187 58.7798L10.5928 58.7798L10.5928 56.7461C10.5972 56.7031 10.5972 56.6597 10.5928 56.6162C10.6982 56.5024 10.7524 56.3667 10.7549 56.2095C10.7549 56.1284 10.7397 56.0508 10.71 55.9761C10.6797 55.9014 10.6367 55.8354 10.5811 55.7778C10.5259 55.7207 10.4614 55.6768 10.3892 55.646C10.3164 55.6147 10.2407 55.5996 10.1621 55.5996L3.75879 55.5996C3.68311 55.5996 3.60986 55.5845 3.53955 55.5547C3.46924 55.5244 3.40723 55.4819 3.35352 55.4268C3.2998 55.3716 3.2583 55.3076 3.22949 55.2354C3.2002 55.1631 3.18555 55.0879 3.18555 55.0098L3.18555 45.8057C3.18506 45.728 3.19922 45.6528 3.22803 45.5811C3.25684 45.5088 3.29785 45.4453 3.35107 45.3906C3.40479 45.3354 3.46631 45.293 3.53662 45.2637C3.60645 45.2339 3.6792 45.2197 3.75488 45.2202L16.2412 45.2202C16.3169 45.2202 16.3901 45.2349 16.4604 45.2651C16.5308 45.2949 16.5928 45.3374 16.6465 45.3931C16.7002 45.4482 16.7417 45.5117 16.7705 45.584C16.7998 45.6562 16.8145 45.7314 16.8145 45.8101L16.8145 52.0449C16.8145 52.1255 16.8291 52.2036 16.8594 52.2783C16.8896 52.353 16.9321 52.4189 16.9878 52.4761C17.0435 52.5332 17.1074 52.5776 17.1802 52.6084C17.2529 52.6392 17.3286 52.6548 17.4072 52.6548C17.4858 52.6548 17.5615 52.6392 17.6338 52.6084C17.7065 52.5776 17.7705 52.5332 17.8262 52.4761C17.8818 52.4189 17.9248 52.353 17.9551 52.2783C17.9849 52.2036 18 52.1255 18 52.0449L18 45.8101C18 45.6909 17.9888 45.5732 17.9663 45.4565C17.9438 45.3403 17.9102 45.2271 17.8662 45.1172C17.8218 45.0073 17.7676 44.9033 17.7036 44.8042C17.6396 44.7056 17.5664 44.6143 17.4849 44.5303C17.4033 44.4463 17.3145 44.3711 17.2183 44.3052C17.1221 44.2388 17.021 44.1831 16.9141 44.1377C16.8076 44.0923 16.6978 44.0581 16.5845 44.0347C16.4712 44.0117 16.3564 44 16.2412 44Z" fill-rule="evenodd" fill="#666666"/>
	<path id="path" d="M11.5356 47.7534C11.5352 47.6729 11.5205 47.5947 11.4902 47.52C11.4604 47.4453 11.4175 47.3794 11.3618 47.3223C11.3062 47.2651 11.2422 47.2212 11.1694 47.1899C11.0967 47.1592 11.021 47.1436 10.9424 47.1436L5.18945 47.1436C5.11084 47.1436 5.03516 47.1592 4.96289 47.1899C4.89014 47.2212 4.82568 47.2651 4.77051 47.3223C4.71484 47.3794 4.67188 47.4453 4.6416 47.52C4.61182 47.5947 4.59668 47.6729 4.59668 47.7534C4.59668 47.8345 4.61182 47.9121 4.6416 47.9868C4.67188 48.062 4.71484 48.1279 4.77051 48.1851C4.82568 48.2422 4.89014 48.2861 4.96289 48.3174C5.03516 48.3481 5.11084 48.3638 5.18945 48.3638L10.9424 48.3638C11.021 48.3638 11.0967 48.3481 11.1694 48.3174C11.2422 48.2861 11.3062 48.2422 11.3618 48.1851C11.4175 48.1279 11.4604 48.062 11.4902 47.9868C11.5205 47.9121 11.5352 47.8345 11.5356 47.7534ZM5.18945 49.291C5.11084 49.291 5.03516 49.3066 4.96289 49.3374C4.89014 49.3687 4.82568 49.4126 4.77051 49.4697C4.71484 49.5269 4.67188 49.5928 4.6416 49.6675C4.61182 49.7422 4.59668 49.8203 4.59668 49.9009C4.59668 49.9819 4.61182 50.0596 4.6416 50.1343C4.67188 50.209 4.71484 50.2754 4.77051 50.3325C4.82568 50.3896 4.89014 50.4336 4.96289 50.4648C5.03516 50.4956 5.11084 50.5112 5.18945 50.5112L7.43066 50.5112C7.50928 50.5112 7.58496 50.4956 7.65771 50.4648C7.72998 50.4336 7.79443 50.3896 7.8501 50.3325C7.90527 50.2754 7.94824 50.209 7.97852 50.1343C8.0083 50.0596 8.02344 49.9819 8.02344 49.9009C8.02344 49.8203 8.0083 49.7422 7.97852 49.6675C7.94824 49.5928 7.90527 49.5269 7.8501 49.4697C7.79443 49.4126 7.72998 49.3687 7.65771 49.3374C7.58496 49.3066 7.50928 49.291 7.43066 49.291L5.18945 49.291ZM16.4941 54.4404C16.3994 54.2705 16.2573 54.1865 16.0669 54.188L13.5415 54.188C13.3506 54.1865 13.2065 54.2705 13.1104 54.4404L11.8496 56.6733C11.8042 56.7515 11.7817 56.8364 11.7817 56.9272C11.7817 57.0186 11.8042 57.1035 11.8496 57.1816L13.1104 59.4346C13.2065 59.6045 13.3506 59.6885 13.5415 59.687L16.0669 59.687C16.2573 59.689 16.3994 59.605 16.4941 59.4346L17.7783 57.1816C17.8237 57.1035 17.8467 57.0186 17.8467 56.9272C17.8467 56.8364 17.8237 56.7515 17.7783 56.6733L16.4941 54.4404ZM15.8022 58.6699L13.8262 58.6699L12.8457 56.9292L13.8262 55.1846L15.8022 55.1846L16.7822 56.9292L15.8022 58.6699Z" fill-rule="evenodd" fill="#666666"/>
	<ellipse id="椭圆 4" cx="14.750000" cy="56.903320" rx="0.750000" ry="0.774193" fill="#666666"/>
	<path id="path" d="M18 81L18 76.8516L16.8501 76.8516L16.8501 79.9219L6.30957 79.9219L3.25 78.1875L3.1499 76.8516L2 76.8516L2 78.5391L5.625 81L18 81Z" fill-rule="evenodd" fill="#666666"/>
	<path id="path" d="M18 65L18 69.1484L16.8501 69.1484L16.8501 66.0781L6.30957 66.0781L3.25 67.8125L3.1499 69.1484L2 69.1484L2 67.4609L5.625 65L18 65Z" fill-rule="evenodd" fill="#666666"/>
	<path id="矢量 16" d="M6.84961 73.0195L7.11621 70.4736L2.74805 70.4736L2.95117 70.7065L2.48145 75.1689L3.75635 75.1689L3.95947 73.5767L6.31104 73.5767C6.41357 73.5767 6.51953 73.5239 6.62891 73.4189C6.73828 73.3135 6.81201 73.1802 6.84961 73.0195ZM9.59375 70.4736L9.39014 72.2988L10.9521 72.2988L11.1401 70.7896L10.9385 70.4736L12.4854 70.4736L11.9453 75.1689L10.6021 75.1689L10.8687 73.0947L9.2998 73.0947L9.05518 75.1689L7.71045 75.1689L8.25049 70.7065L7.97705 70.4736L9.59375 70.4736ZM17.4824 73.0195L17.749 70.4736L13.3809 70.4736L13.5845 70.7065L13.1143 75.1689L14.3892 75.1689L14.5928 73.5767L16.9443 73.5767Q17.0981 73.5767 17.2622 73.4189Q17.4263 73.2607 17.4824 73.0195ZM4.09131 72.7808L4.23145 71.2695L5.70947 71.2695L5.50635 72.7808L4.09131 72.7808ZM14.7241 72.7808L14.8643 71.2695L16.3428 71.2695L16.1392 72.7808L14.7241 72.7808Z" fill-rule="evenodd" fill="#666666"/>
	<path id="path" d="M13.8647 102L7.29395 102C6.6123 102 5.77881 101.853 5.38916 101.33C5 100.806 5.05469 100.037 5.29785 99.4268C5.63867 98.5977 6.27148 97.769 7.09912 96.9839C7.92627 95.937 8.07227 95.3262 8.07227 95.021C7.78027 95.1079 7.66602 95.3325 7.42236 95.4634L5.67969 96.5298C5.0957 96.8789 3.79053 96.6782 3.3042 96.1987L2.37891 95.3262C1.98975 94.9336 1.85352 94.2993 2.19434 93.8633L6.26074 87.9966C7.09912 87.1968 8.12109 86.9507 9.14355 87.0381C10.3604 87.1255 12.064 87.3872 13.3779 88.2158C15.6172 89.6118 16.542 90.4404 15.9092 97.5508C15.8604 98.3359 15.9414 99.0776 16.1362 99.7319C16.2822 100.299 15.9092 100.866 15.5195 101.302C15.0815 101.738 14.4976 102 13.8647 102ZM9.14355 95.021C9.19189 95.5005 9.07422 96.1987 8.00342 97.5508C7.22461 98.2485 6.51514 98.9902 6.22266 99.7319C6.07666 100.037 6.12549 100.386 6.36865 100.648C6.6123 100.953 6.95312 101.084 7.34229 101.084L13.9136 101.084C14.2544 101.084 14.5947 100.953 14.7896 100.691C14.9844 100.474 15.0815 100.168 14.9844 99.8628C14.7896 99.1211 14.6924 98.3359 14.7896 97.4639C15.4224 90.4844 14.7407 90.0479 12.8911 88.8701C11.772 88.1724 10.2627 87.9541 9.14355 87.8672C8.46191 87.8232 7.8291 88.1289 7.48828 88.6084L3.35107 94.4102C3.25391 94.4976 3.25391 94.6284 3.35107 94.7153L4.27588 95.5879C4.4707 95.7622 4.71387 95.7622 4.95752 95.6753L6.7583 94.6284C7.19629 94.3667 7.73193 94.1919 8.31592 94.105C9.28955 93.9302 9.92236 93.625 10.2627 93.145C10.6523 92.5781 10.4575 92.0107 10.4575 92.0107C10.3604 91.793 10.5063 91.5312 10.7983 91.4873C11.0415 91.4004 11.4404 91.7349 11.4888 91.9966C11.4888 92.0405 11.6743 92.9473 11.0903 93.8633C10.7012 94.3867 10.1167 94.8027 9.14355 95.021Z" fill-rule="evenodd" fill="#666666"/>
	<path id="path" d="M16.1528 97.7246L15.228 97.7246L15.228 96.8521L16.1528 96.8521C16.5908 96.8521 16.9316 96.5469 16.9316 96.1543L16.9316 94.2349C16.9316 93.4932 16.98 92.8828 17.0288 92.3154C17.1748 91.0942 17.0288 88.1714 12.6968 87.0376C11.8203 86.8193 10.7983 86.8628 9.92236 87.1685C9.0459 87.4736 8.36475 87.9971 8.31592 87.9971L7.68311 87.3428C7.73193 87.2993 8.55957 86.7319 9.53271 86.3394C10.6523 85.9468 11.8691 85.9033 12.9399 86.165C14.2544 86.5142 18.4893 87.9971 17.9536 92.3594C17.9048 92.8828 17.8564 93.4932 17.8564 94.1914L17.8564 96.1108C17.9048 97.0269 17.126 97.7246 16.1528 97.7246ZM7.34229 91.5742C7.24512 91.5742 7.14795 91.5303 7.05029 91.4868C6.85596 91.356 6.80713 91.0508 6.95312 90.876L7.29395 90.4834C7.43994 90.3091 7.78076 90.2651 7.9751 90.396C8.16992 90.5269 8.21875 90.8325 8.07275 91.0068L7.73193 91.3994C7.63428 91.5303 7.48828 91.5742 7.34229 91.5742Z" fill-rule="evenodd" fill="#666666"/>
	<path id="path" d="M16.8882 118.821C16.8662 118.794 14.7148 115.957 14.7148 113.866C14.7148 110.962 13.3257 109.474 11.748 108.919L11.748 108.655C11.748 107.741 10.9609 107 9.99805 107C9.03564 107 8.24854 107.745 8.24854 108.655L8.24854 108.942C8.05078 109.079 7.95361 109.319 8.03174 109.55C8.12939 109.841 8.4585 109.999 8.76562 109.906C9.08887 109.809 9.43994 109.761 9.80371 109.761L10.1924 109.761C12.2939 109.761 13.5483 111.297 13.5483 113.869C13.5483 115.731 14.8779 117.926 15.5581 118.928C14.5107 119.379 12.2217 120.242 10.0015 120.242C7.78711 120.242 5.4917 119.373 4.44434 118.922C5.125 117.923 6.45117 115.734 6.45117 113.869C6.45117 112.792 6.66162 111.899 7.08154 111.214C7.2417 110.95 7.14746 110.612 6.86865 110.461C6.58643 110.307 6.23193 110.399 6.07178 110.663C5.55127 111.517 5.28467 112.596 5.28467 113.869C5.28467 115.959 3.1333 118.786 3.11182 118.815C3.01416 118.946 2.97656 119.106 3.01416 119.263C3.05176 119.417 3.15869 119.551 3.30615 119.625C3.40967 119.678 5.2627 120.613 7.56152 121.081C7.9502 122.226 8.91016 123 9.99805 123C11.0864 123 12.0459 122.226 12.4351 121.081C14.7334 120.613 16.5869 119.685 16.6904 119.634C16.8379 119.557 16.9443 119.426 16.9854 119.272C17.0229 119.115 16.9883 118.952 16.8882 118.821ZM9.80371 108.655C9.67188 108.655 9.54346 108.673 9.41504 108.682C9.41504 108.379 9.67822 108.103 9.99805 108.103C10.3179 108.103 10.5815 108.353 10.5815 108.655C10.4497 108.646 10.3213 108.655 10.1924 108.655L9.80371 108.655ZM9.99805 121.897C9.59033 121.897 9.21094 121.666 8.94141 121.289C9.29248 121.324 9.64404 121.345 9.99805 121.345C10.3525 121.345 10.707 121.321 11.0552 121.289C10.7852 121.666 10.4058 121.897 9.99805 121.897Z" fill-rule="evenodd" fill="#666666"/>
	<defs/>
</svg>
