<svg width="20.000000" height="125.000000" viewBox="0 0 20 125" fill="none" xmlns="http://www.w3.org/2000/svg" xmlns:xlink="http://www.w3.org/1999/xlink">
	<desc>
			Created with Pixso.
	</desc>
	<path id="path" d="M8.3999 17L8.3999 14.562C8.3999 13.6782 9.11646 12.9619 10 12.9619C10.8835 12.9619 11.6001 13.6782 11.6001 14.562L11.6001 17C11.6001 17.5522 12.0479 18 12.6001 18L14.6001 18C15.1523 18 15.6001 17.5522 15.6001 17L15.6001 10.9688L15.7681 10.9688C16.6316 10.9688 17.0891 9.94775 16.5142 9.30322L10.7463 2.83643C10.3486 2.39062 9.65137 2.39062 9.25366 2.83643L3.48584 9.30322C2.91089 9.94775 3.36841 10.9688 4.23193 10.9688L4.3999 10.9688L4.3999 17C4.3999 17.5522 4.84766 18 5.3999 18L7.3999 18C7.95215 18 8.3999 17.5522 8.3999 17Z" fill-rule="evenodd" fill="#20A53A"/>
	<ellipse id="椭圆 3" cx="13.849609" cy="34.777832" rx="4.150341" ry="3.999999" fill="#20A53A"/>
	<path id="path" d="M16.3984 33.7832L13.3528 36.7778L13.1277 36.7778L12.9392 36.6226L11.4167 35.1255L11.9875 34.5645L13.2258 35.7803L15.8271 33.2222L16.3984 33.7832Z" fill-rule="evenodd" fill="#FFFFFF"/>
	<rect id="矩形 83" x="4.264648" y="27.000000" width="7.246154" height="1.066666" fill="#20A53A"/>
	<path id="矩形 84" d="M4.26465 31L8.34058 31L8.34058 32.0664L4.26465 32.0669L4.26465 31Z" fill-rule="evenodd" fill="#20A53A"/>
	<path id="减去顶层" d="M16.6482 27.0005C16.6482 24.7915 14.8574 23.0005 12.6482 23.0005L6 23.0005C3.79077 23.0005 2 24.7915 2 27.0005L2 35.0005C2 37.2095 3.79077 39.0005 6 39.0005L7.85938 39.0005L7.85938 37.8003L6 37.8003C4.45361 37.8003 3.19995 36.5469 3.19995 35.0005L3.19995 27.0005C3.19995 25.4541 4.45361 24.2007 6 24.2007L12.6482 24.2007C14.1946 24.2007 15.4482 25.4541 15.4482 27.0005L15.4482 28.6475L16.6482 28.6475L16.6482 27.0005Z" clip-rule="evenodd" fill-rule="evenodd" fill="#20A53A" fill-opacity="1.000000"/>
	<path id="path" d="M16.2412 44L3.75488 44C3.63965 44 3.52563 44.0117 3.4126 44.0347C3.29956 44.0576 3.1897 44.0923 3.08325 44.1377C2.97681 44.1826 2.87573 44.2383 2.78003 44.3042C2.68408 44.3701 2.59546 44.4448 2.51392 44.5288C2.43262 44.6128 2.35986 44.7041 2.29565 44.8027C2.23169 44.9014 2.17773 45.0054 2.13354 45.1147C2.0896 45.2241 2.05615 45.3374 2.03369 45.4536C2.01123 45.5698 2 45.687 2 45.8057L2 55.022C2 55.1406 2.01123 55.2583 2.03369 55.375C2.0564 55.4917 2.0896 55.6045 2.13379 55.7144C2.17798 55.8242 2.23218 55.9287 2.29639 56.0273C2.3606 56.126 2.43359 56.2178 2.51514 56.3018C2.59692 56.3857 2.68579 56.4604 2.78174 56.5269C2.87769 56.5928 2.979 56.6484 3.08569 56.6938C3.19238 56.7393 3.30249 56.7739 3.41577 56.7969C3.52905 56.8203 3.64331 56.8315 3.75879 56.8315L9.40723 56.8315L9.40723 58.7798L5.1897 58.7798C5.11108 58.7798 5.0354 58.7954 4.96289 58.8262C4.89014 58.8574 4.82617 58.9014 4.77051 58.9585C4.71484 59.0156 4.67212 59.0815 4.64209 59.1562C4.61182 59.2314 4.59692 59.3091 4.59692 59.3901C4.59692 59.4707 4.61182 59.5488 4.64209 59.6235C4.67212 59.6982 4.71484 59.7642 4.77051 59.8213C4.82617 59.8784 4.89014 59.9224 4.96289 59.9536C5.0354 59.9844 5.11108 60 5.1897 60L11.1187 60C11.1973 60 11.2727 59.9844 11.3455 59.9536C11.4182 59.9224 11.4822 59.8784 11.5378 59.8213C11.5935 59.7642 11.6362 59.6982 11.6663 59.6235C11.6965 59.5488 11.7114 59.4707 11.7114 59.3901C11.7114 59.3091 11.6965 59.2314 11.6663 59.1562C11.6362 59.0815 11.5935 59.0156 11.5378 58.9585C11.4822 58.9014 11.4182 58.8574 11.3455 58.8262C11.2727 58.7954 11.1973 58.7798 11.1187 58.7798L10.5928 58.7798L10.5928 56.7461C10.5969 56.7031 10.5969 56.6597 10.5928 56.6162C10.6982 56.5024 10.7522 56.3667 10.7549 56.2095C10.7549 56.1284 10.74 56.0508 10.7097 55.9761C10.6797 55.9014 10.637 55.8354 10.5813 55.7783C10.5256 55.7207 10.4617 55.6768 10.3889 55.646C10.3164 55.6147 10.2407 55.5996 10.1621 55.5996L3.75879 55.5996C3.68286 55.5996 3.60986 55.5845 3.53955 55.5547C3.46924 55.5244 3.40747 55.4819 3.35352 55.4268C3.2998 55.3716 3.25854 55.3076 3.22949 55.2354C3.2002 55.1631 3.18579 55.0879 3.18579 55.0098L3.18579 45.8057C3.1853 45.728 3.19922 45.6528 3.22803 45.5811C3.25684 45.5088 3.29785 45.4453 3.35132 45.3906C3.40479 45.3354 3.46655 45.293 3.53662 45.2637C3.60645 45.2339 3.6792 45.2197 3.75488 45.2202L16.2412 45.2202C16.3171 45.2202 16.3901 45.2349 16.4604 45.2651C16.5308 45.2949 16.5925 45.3374 16.6465 45.3931C16.7002 45.4482 16.7415 45.5117 16.7705 45.584C16.7998 45.6562 16.8142 45.7314 16.8142 45.8101L16.8142 52.0449C16.8142 52.1255 16.8293 52.2036 16.8594 52.2783C16.8894 52.353 16.9324 52.4189 16.9878 52.4761C17.0435 52.5332 17.1077 52.5776 17.1802 52.6084C17.2529 52.6392 17.3286 52.6548 17.4072 52.6548C17.4858 52.6548 17.5613 52.6392 17.634 52.6084C17.7065 52.5776 17.7708 52.5332 17.8264 52.4761C17.8818 52.4189 17.9248 52.353 17.9548 52.2783C17.9849 52.2036 18 52.1255 18 52.0449L18 45.8101C18 45.6909 17.9888 45.5732 17.9663 45.4565C17.9436 45.3403 17.9104 45.2271 17.8662 45.1172C17.822 45.0073 17.7678 44.9033 17.7036 44.8042C17.6394 44.7056 17.5664 44.6143 17.4849 44.5303C17.4031 44.4463 17.3142 44.3711 17.2183 44.3052C17.1223 44.2388 17.021 44.1831 16.9143 44.1377C16.8076 44.0923 16.6975 44.0581 16.5842 44.0347C16.4709 44.0117 16.3567 44 16.2412 44Z" fill-rule="evenodd" fill="#20A53A"/>
	<path id="path" d="M11.2917 47.9043C11.2917 47.8237 11.2766 47.7456 11.2466 47.6709C11.2166 47.5962 11.1736 47.5303 11.1182 47.4731C11.0625 47.416 10.9983 47.3721 10.9258 47.3408C10.853 47.3101 10.7776 47.2944 10.699 47.2944L4.9458 47.2944C4.86719 47.2944 4.79175 47.3101 4.71899 47.3408C4.64648 47.3721 4.58228 47.416 4.52661 47.4731C4.47119 47.5303 4.42822 47.5962 4.39819 47.6709C4.36816 47.7456 4.35303 47.8237 4.35303 47.9043C4.35303 47.9854 4.36816 48.063 4.39819 48.1377C4.42822 48.2129 4.47119 48.2788 4.52661 48.3359C4.58228 48.3931 4.64648 48.437 4.71899 48.4683C4.79175 48.499 4.86719 48.5146 4.9458 48.5146L10.699 48.5146C10.7776 48.5146 10.853 48.499 10.9258 48.4683C10.9983 48.437 11.0625 48.3931 11.1182 48.3359C11.1736 48.2788 11.2166 48.2129 11.2466 48.1377C11.2766 48.063 11.2917 47.9854 11.2917 47.9043ZM4.9458 49.4419C4.86719 49.4419 4.79175 49.4575 4.71899 49.4883C4.64648 49.5195 4.58228 49.5635 4.52661 49.6206C4.47119 49.6777 4.42822 49.7437 4.39819 49.8184C4.36816 49.8931 4.35303 49.9712 4.35303 50.0518C4.35303 50.1328 4.36816 50.2104 4.39819 50.2852C4.42822 50.3599 4.47119 50.4263 4.52661 50.4834C4.58228 50.5405 4.64648 50.5845 4.71899 50.6157C4.79175 50.6465 4.86719 50.6621 4.9458 50.6621L7.18701 50.6621C7.26562 50.6621 7.34131 50.6465 7.41382 50.6157C7.48657 50.5845 7.55078 50.5405 7.6062 50.4834C7.66187 50.4263 7.70459 50.3599 7.73486 50.2852C7.76489 50.2104 7.77979 50.1328 7.77979 50.0518C7.77979 49.9712 7.76489 49.8931 7.73486 49.8184C7.70459 49.7437 7.66187 49.6777 7.6062 49.6206C7.55078 49.5635 7.48657 49.5195 7.41382 49.4883C7.34131 49.4575 7.26562 49.4419 7.18701 49.4419L4.9458 49.4419Z" fill-rule="evenodd" fill="#20A53A"/>
	<path id="减去顶层" d="M15.6792 54.353L13.8623 54.353C13.5024 54.353 13.1702 54.5464 12.9927 54.8594L12.0916 56.4478C11.918 56.7539 11.918 57.1284 12.0916 57.4346L12.9927 59.0229C13.1702 59.3359 13.5024 59.5293 13.8623 59.5293L15.6792 59.5293C16.0146 59.5293 16.3279 59.3613 16.5129 59.0815L17.5642 57.4932C17.7856 57.1587 17.7856 56.7241 17.5642 56.3892L16.5129 54.8013C16.3279 54.5215 16.0146 54.353 15.6792 54.353ZM14.8711 56.2354C14.4812 56.2354 14.165 56.5513 14.165 56.9414C14.165 57.3311 14.4812 57.647 14.8711 57.647C15.261 57.647 15.5769 57.3311 15.5769 56.9414C15.5769 56.5513 15.261 56.2354 14.8711 56.2354Z" clip-rule="evenodd" fill-rule="evenodd" fill="#20A53A" fill-opacity="1.000000"/>
	<path id="path" d="M18 81L18 76.8516L16.8501 76.8516L16.8501 79.9219L6.30981 79.9219L3.25 78.1875L3.1499 76.8516L2 76.8516L2 78.5391L5.625 81L18 81Z" fill-rule="evenodd" fill="#20A53A"/>
	<path id="path" d="M18 65L18 69.1484L16.8501 69.1484L16.8501 66.0781L6.30981 66.0781L3.25 67.8125L3.1499 69.1484L2 69.1484L2 67.4609L5.625 65L18 65Z" fill-rule="evenodd" fill="#20A53A"/>
	<path id="矢量 16" d="M6.84961 73.0195L7.11621 70.4736L2.74805 70.4736L2.95142 70.7065L2.48145 75.1689L3.75635 75.1689L3.95972 73.5767L6.31128 73.5767C6.41382 73.5767 6.51978 73.5239 6.62915 73.4189C6.73853 73.3135 6.81201 73.1802 6.84961 73.0195ZM9.59375 70.4736L9.39038 72.2988L10.9524 72.2988L11.1404 70.7896L10.9387 70.4736L12.4854 70.4736L11.9453 75.1689L10.6021 75.1689L10.8687 73.0947L9.2998 73.0947L9.05542 75.1689L7.71045 75.1689L8.25049 70.7065L7.97705 70.4736L9.59375 70.4736ZM17.4827 73.0195L17.7493 70.4736L13.3811 70.4736L13.5845 70.7065L13.1145 75.1689L14.3894 75.1689L14.5928 73.5767L16.9443 73.5767Q17.0981 73.5767 17.2622 73.4189Q17.4263 73.2607 17.4827 73.0195ZM4.09131 72.7808L4.23145 71.2695L5.70972 71.2695L5.50635 72.7808L4.09131 72.7808ZM14.7244 72.7808L14.8645 71.2695L16.3428 71.2695L16.1394 72.7808L14.7244 72.7808Z" fill-rule="evenodd" fill="#20A53A"/>
	<path id="path" d="M13.8647 102L7.2937 102C6.6123 102 5.77881 101.853 5.3894 101.329C5 100.806 5.05469 100.037 5.2981 99.4263C5.63867 98.5972 6.27148 97.7686 7.09912 96.9834C7.92651 95.936 8.07251 95.3257 8.07251 95.02C7.78052 95.1074 7.66602 95.3315 7.42261 95.4624L5.67993 96.5293C5.0957 96.8784 3.79077 96.6777 3.30396 96.1982L2.37915 95.3257C1.98975 94.9331 1.85352 94.2988 2.19434 93.8628L6.26074 87.9956C7.09912 87.1958 8.12109 86.9497 9.14331 87.0371C10.3601 87.1245 12.0637 87.3862 13.3782 88.2148C15.6172 89.6108 16.542 90.4399 15.9092 97.5503C15.8604 98.3354 15.9417 99.0771 16.1362 99.7314C16.2822 100.298 15.9092 100.866 15.5198 101.302C15.0818 101.738 14.4976 102 13.8647 102ZM9.14331 95.02C9.19214 95.5 9.07422 96.1978 8.00342 97.5503C7.22461 98.248 6.51489 98.9897 6.2229 99.7314C6.0769 100.037 6.12549 100.386 6.3689 100.647C6.6123 100.953 6.95288 101.084 7.34229 101.084L13.9136 101.084C14.2542 101.084 14.595 100.953 14.7896 100.691C14.9844 100.473 15.0818 100.167 14.9844 99.8623C14.7896 99.1206 14.6924 98.3354 14.7896 97.4629C15.4224 90.4834 14.741 90.0474 12.8914 88.8691C11.7717 88.1714 10.2629 87.9531 9.14331 87.8662C8.46191 87.8223 7.8291 88.1279 7.48828 88.6074L3.35107 94.4097C3.25366 94.4966 3.25366 94.6274 3.35107 94.7148L4.27588 95.5874C4.47046 95.7617 4.71387 95.7617 4.95728 95.6743L6.7583 94.6274C7.19629 94.3657 7.73169 94.1914 8.31592 94.104C9.28931 93.9297 9.92212 93.624 10.2629 93.1445C10.6523 92.5771 10.4575 92.0103 10.4575 92.0103C10.3601 91.792 10.5063 91.5303 10.7983 91.4868C11.0417 91.3994 11.4404 91.7344 11.489 91.9961C11.489 92.0396 11.6746 92.9463 11.0903 93.8628C10.7009 94.3862 10.1169 94.8022 9.14331 95.02Z" fill-rule="evenodd" fill="#20A53A"/>
	<path id="path" d="M16.1526 97.7251L15.2278 97.7251L15.2278 96.8525L16.1526 96.8525C16.5906 96.8525 16.9314 96.5474 16.9314 96.1548L16.9314 94.2354C16.9314 93.4937 16.98 92.8828 17.0286 92.3159C17.1748 91.0942 17.0286 88.1719 12.6965 87.0376C11.8206 86.8193 10.7983 86.8628 9.92212 87.1685C9.0459 87.4736 8.3645 87.9971 8.31592 87.9971L7.68311 87.3428C7.73169 87.2993 8.55933 86.7319 9.53271 86.3394C10.6523 85.9468 11.8691 85.9033 12.9399 86.165C14.2542 86.5142 18.489 87.9971 17.9536 92.3594C17.9048 92.8828 17.8562 93.4937 17.8562 94.1914L17.8562 96.1108C17.9048 97.0269 17.126 97.7251 16.1526 97.7251Z" fill-rule="evenodd" fill="#20A53A"/>
	<path id="矢量 30" d="M10.75 93.2939L10 94L9.25 94.4702L8.75 94.7056L8.5 95.1763L8.5 95.647L8.25 96.1177L7.25 97.5293L6.5 98.4702L6 98.9409L5.75 99.8823L5.5 100.353L5.75 101.059L6.25 101.294L7 101.529L7.75 101.529L14.5 101.529L15 101.059L15.5 100.588L15.5 99.647L15.25 98L15.5 96.353L15.5 93.7646L15.5 91.1763L14.5 89.5293L13.25 88.5879L11.75 87.8823L10 87.4116L8.75 87.4116L7.25 88.1177L6.5 89.0586L5 90.9409L3.75 92.5879L2.75 94L2.75 94.7056L4.25 96.1177L5 96.1177L6 95.647L6.5 95.1763L8 94.7056L10.75 93.2939Z" fill-rule="evenodd" fill="#20A53A"/>
	<path id="path" d="M7.47437 91.4893C7.37695 91.4893 7.27954 91.4458 7.18237 91.4019C6.98755 91.271 6.93896 90.9658 7.08496 90.7915L7.42554 90.3989C7.57153 90.2241 7.91235 90.1807 8.10718 90.3115C8.30176 90.4424 8.35034 90.7476 8.20435 90.9224L7.86377 91.3149C7.76636 91.4458 7.62036 91.4893 7.47437 91.4893Z" fill-rule="evenodd" fill="#FFFFFF"/>
	<path id="减去顶层" d="M16.8879 118.821C16.866 118.794 14.7146 115.956 14.7146 113.865C14.7146 110.962 13.3254 109.473 11.748 108.918L11.748 108.654C11.748 107.741 10.9609 107 9.99829 107C9.0354 107 8.24829 107.744 8.24829 108.654L8.24829 108.942C8.16309 109.001 8.09644 109.079 8.05444 109.168C8.07837 109.262 8.09106 109.36 8.09106 109.461C8.09106 110.142 7.52124 110.692 6.81836 110.692C6.5874 110.692 6.37109 110.633 6.18433 110.529C6.14087 110.567 6.10278 110.611 6.07202 110.662C5.55127 111.516 5.28491 112.596 5.28491 113.868C5.28491 115.959 3.13354 118.785 3.11157 118.815C3.0144 118.945 2.97681 119.105 3.0144 119.263C3.052 119.417 3.15869 119.55 3.30591 119.625C3.40942 119.678 5.26294 120.612 7.56152 121.081C7.95044 122.226 8.90991 123 9.99829 123C11.0864 123 12.0459 122.226 12.4348 121.081C14.7336 120.612 16.5869 119.684 16.6904 119.633C16.8379 119.556 16.9443 119.426 16.9851 119.271C17.0227 119.114 16.9883 118.951 16.8879 118.821ZM9.80371 108.654C9.67212 108.654 9.54346 108.672 9.41479 108.681C9.41479 108.378 9.67822 108.103 9.99829 108.103C10.3181 108.103 10.5815 108.352 10.5815 108.654C10.4937 108.648 10.407 108.65 10.321 108.652C10.2781 108.653 10.2354 108.654 10.1926 108.654L9.80371 108.654ZM9.99829 121.896C9.59058 121.896 9.21118 121.665 8.94141 121.288C9.29248 121.324 9.6438 121.345 9.99829 121.345C10.3525 121.345 10.707 121.321 11.0549 121.288C10.7854 121.665 10.4058 121.896 9.99829 121.896Z" clip-rule="evenodd" fill-rule="evenodd" fill="#20A53A" fill-opacity="1.000000"/>
	<defs/>
</svg>
