<svg width="20.000000" height="20.000000" viewBox="0 0 20 20" fill="none" xmlns="http://www.w3.org/2000/svg" xmlns:xlink="http://www.w3.org/1999/xlink">
	<desc>
			Created with Pixso.
	</desc>
	<defs/>
	<path id="矢量 1160 (边框)" d="M3.79846 19L10.9923 19C11.1937 19 11.352 18.8416 11.352 18.64C11.352 18.4384 11.1937 18.28 10.9923 18.28L3.79846 18.28C3.64948 18.28 3.51139 18.2536 3.38422 18.2009C3.25705 18.1482 3.14079 18.0691 3.03544 17.9637C2.93009 17.8582 2.85107 17.7419 2.7984 17.6146C2.74572 17.4873 2.71938 17.3491 2.71938 17.2L2.71938 2.79999C2.71938 2.44 2.80931 2.17001 2.98915 1.98999C3.169 1.81 3.43877 1.72 3.79846 1.72L16.028 1.72C16.3877 1.72 16.6575 1.81 16.8373 1.98999C17.0172 2.17001 17.1071 2.44 17.1071 2.79999L17.1071 10.72C17.1071 10.9216 17.2653 11.08 17.4668 11.08C17.6682 11.08 17.8265 10.9216 17.8265 10.72L17.8265 2.79999C17.8265 2.55148 17.7826 2.32114 17.6948 2.10901C17.607 1.89688 17.4753 1.70294 17.2997 1.52722C17.1241 1.35147 16.9303 1.21967 16.7184 1.13181C16.5064 1.04395 16.2763 1 16.028 1L3.79846 1C3.19897 1 2.74936 1.14999 2.44962 1.45001C2.14987 1.75 2 2.20001 2 2.79999L2 17.2C2 17.8 2.14987 18.25 2.44962 18.55C2.74936 18.85 3.19897 19 3.79846 19Z" fill-rule="evenodd" fill="#20A53A"/>
	<path id="矢量 1161 (边框)" d="M5.29478 4.75275C5.09335 4.75275 4.93509 4.91113 4.93509 5.11273C4.93509 5.31436 5.09335 5.47275 5.29478 5.47275L14.359 5.47275C14.5605 5.47275 14.7187 5.31436 14.7187 5.11273C14.7187 4.91113 14.5605 4.75275 14.359 4.75275L5.29478 4.75275Z" fill-rule="evenodd" fill="#20A53A"/>
	<path id="矢量 1162 (边框)" d="M5.29478 8.24365C5.09335 8.24365 4.93509 8.40204 4.93509 8.60364C4.93509 8.80527 5.09335 8.96365 5.29478 8.96365L14.359 8.96365C14.5605 8.96365 14.7187 8.80527 14.7187 8.60364C14.7187 8.40204 14.5605 8.24365 14.359 8.24365L5.29478 8.24365Z" fill-rule="evenodd" fill="#20A53A"/>
	<path id="矢量 1163 (边框)" d="M5.38111 11.7346C5.17968 11.7346 5.02142 11.8929 5.02142 12.0945C5.02142 12.2962 5.17968 12.4546 5.38111 12.4546L10.2154 12.4546C10.4168 12.4546 10.5751 12.2962 10.5751 12.0945C10.5751 11.8929 10.4168 11.7346 10.2154 11.7346L5.38111 11.7346Z" fill-rule="evenodd" fill="#20A53A"/>
	<path id="path" d="M15.032 17.8154C14.2347 17.8154 13.4816 17.5093 12.95 16.9409C12.8614 16.8535 12.8614 16.7223 12.95 16.6348C13.0386 16.5474 13.1715 16.5474 13.2601 16.6348C13.7474 17.1158 14.3676 17.3781 15.032 17.3781C16.4053 17.3781 17.557 16.285 17.557 14.8858C17.557 13.4866 16.4496 12.3935 15.032 12.3935C13.9246 12.3935 12.9057 13.1368 12.5956 14.1862C12.5956 14.3174 12.4627 14.4048 12.3742 14.3611C12.2413 14.3174 12.197 14.1862 12.197 14.0988C12.5513 12.8745 13.7474 12 15.032 12C16.6711 12 18 13.3117 18 14.9296C18 16.5036 16.6711 17.8154 15.032 17.8154Z" fill-rule="nonzero" fill="#20A53A"/>
	<path id="path" d="M12.95 16.9409C12.8614 16.8535 12.8614 16.7223 12.95 16.6348C13.0386 16.5474 13.1715 16.5474 13.2601 16.6348C13.7474 17.1158 14.3676 17.3781 15.032 17.3781C16.4053 17.3781 17.557 16.285 17.557 14.8858C17.557 13.4866 16.4496 12.3935 15.032 12.3935C13.9246 12.3935 12.9057 13.1368 12.5956 14.1862C12.5956 14.3174 12.4627 14.4048 12.3742 14.3611C12.2413 14.3174 12.197 14.1862 12.197 14.0988C12.5513 12.8745 13.7474 12 15.032 12C16.6711 12 18 13.3117 18 14.9296C18 16.5036 16.6711 17.8154 15.032 17.8154C14.2347 17.8154 13.4816 17.5093 12.95 16.9409Z" stroke="#20A53A" stroke-width="0.150000"/>
	<path id="path" d="M12.2842 14.7546C12.1533 14.7546 12.0661 14.7036 12.0661 14.5506L11.8915 13.2243C11.8915 13.0713 11.9352 12.9692 12.0661 12.9182C12.197 12.9182 12.2842 12.9692 12.3279 13.1223L12.5024 14.4996C12.5024 14.6016 12.4151 14.7546 12.2842 14.7546Z" fill-rule="nonzero" fill="#20A53A"/>
	<path id="path" d="M12.4265 14.7546C12.3411 14.7546 12.2557 14.7137 12.213 14.6726C12.1703 14.5496 12.213 14.4266 12.3411 14.3856L13.4085 13.8525C13.4939 13.8115 13.6219 13.8525 13.7073 13.9345C13.75 14.0165 13.7073 14.1396 13.6219 14.2216L12.5118 14.7546L12.4265 14.7546Z" fill-rule="nonzero" fill="#20A53A"/>
	<path id="合并" d="M15.3206 14.9713L16.5973 15.8542C16.7008 15.9576 16.7525 16.1126 16.649 16.216C16.649 16.2676 16.5973 16.2676 16.4938 16.2676C16.4421 16.2676 16.3904 16.2676 16.3386 16.216L14.9934 15.3374C14.8894 15.2681 14.8551 15.1756 14.8594 15.091C14.8591 15.0854 14.859 15.0798 14.859 15.0741L14.859 13.2592C14.859 13.1037 14.9513 13 15.0898 13C15.2283 13 15.3206 13.1037 15.3206 13.2592L15.3206 14.9713Z" clip-rule="evenodd" fill-rule="evenodd" fill="#20A53A" fill-opacity="1.000000"/>
</svg>
